<?xml version="1.0" encoding="UTF-8" standalone="no"?>
<!DOCTYPE svg PUBLIC "-//W3C//DTD SVG 1.1//EN"
 "http://www.w3.org/Graphics/SVG/1.1/DTD/svg11.dtd">
<!-- Generated by graphviz version 10.0.1 (0)
 -->
<!-- Pages: 1 -->
<svg width="411pt" height="265pt"
 viewBox="0.00 0.00 410.73 264.50" xmlns="http://www.w3.org/2000/svg" xmlns:xlink="http://www.w3.org/1999/xlink">
<g id="graph0" class="graph" transform="scale(1 1) rotate(0) translate(4 260.5)">
<polygon fill="white" stroke="none" points="-4,4 -4,-260.5 406.73,-260.5 406.73,4 -4,4"/>
<text text-anchor="middle" x="89" y="-239.2" font-family="Helvetica,Arial,sans-serif" font-size="14.00">Device Authorization Grant</text>
<!-- synd_term -->
<g id="node1" class="node">
<title>synd_term</title>
<ellipse fill="none" stroke="black" cx="63.83" cy="-113.75" rx="63.83" ry="18"/>
<text text-anchor="middle" x="63.83" y="-109.08" font-family="Times,serif" font-size="14.00">synd_term</text>
</g>
<!-- synd_api -->
<g id="node2" class="node">
<title>synd_api</title>
<ellipse fill="none" stroke="black" cx="272.83" cy="-113.75" rx="54.89" ry="18"/>
<text text-anchor="middle" x="272.83" y="-109.08" font-family="Times,serif" font-size="14.00">synd_api</text>
</g>
<!-- synd_term&#45;&gt;synd_api -->
<g id="edge5" class="edge">
<title>synd_term&#45;&gt;synd_api</title>
<path fill="none" stroke="black" d="M127.96,-113.75C152.83,-113.75 181.31,-113.75 206.39,-113.75"/>
<polygon fill="black" stroke="black" points="206.14,-117.25 216.14,-113.75 206.14,-110.25 206.14,-117.25"/>
<text text-anchor="middle" x="172.81" y="-120.7" font-family="Times,serif" font-size="14.00">3. request</text>
</g>
<!-- id_provider -->
<g id="node3" class="node">
<title>id_provider</title>
<polygon fill="none" stroke="black" points="177.08,-227.5 78.58,-227.5 78.58,-185 177.08,-185 177.08,-227.5"/>
<text text-anchor="middle" x="127.83" y="-210.2" font-family="Times,serif" font-size="14.00">OIDC</text>
<text text-anchor="middle" x="127.83" y="-192.95" font-family="Times,serif" font-size="14.00">ID Provider</text>
</g>
<!-- synd_term&#45;&gt;id_provider -->
<g id="edge1" class="edge">
<title>synd_term&#45;&gt;id_provider</title>
<path fill="none" stroke="black" d="M87.15,-130.73C93.85,-136.17 100.71,-142.68 105.83,-149.75 111.02,-156.91 115.19,-165.45 118.45,-173.67"/>
<polygon fill="black" stroke="black" points="115.15,-174.85 121.82,-183.08 121.74,-172.48 115.15,-174.85"/>
<text text-anchor="middle" x="169.83" y="-153.7" font-family="Times,serif" font-size="14.00">1. authenticate</text>
</g>
<!-- authorize_server -->
<g id="node4" class="node">
<title>authorize_server</title>
<polygon fill="none" stroke="black" points="257.58,-42.5 120.08,-42.5 120.08,0 257.58,0 257.58,-42.5"/>
<text text-anchor="middle" x="188.83" y="-25.2" font-family="Times,serif" font-size="14.00">OAuth</text>
<text text-anchor="middle" x="188.83" y="-7.95" font-family="Times,serif" font-size="14.00">Authorize Server</text>
</g>
<!-- synd_term&#45;&gt;authorize_server -->
<g id="edge3" class="edge">
<title>synd_term&#45;&gt;authorize_server</title>
<path fill="none" stroke="black" d="M36.41,-97.22C21.8,-86.96 8.74,-73.12 18.83,-60.5 30.49,-45.93 70.37,-36.52 108.57,-30.68"/>
<polygon fill="black" stroke="black" points="108.91,-34.17 118.31,-29.28 107.91,-27.24 108.91,-34.17"/>
<text text-anchor="middle" x="72.83" y="-64.45" font-family="Times,serif" font-size="14.00">1. authenticate</text>
</g>
<!-- synd_api&#45;&gt;synd_api -->
<g id="edge7" class="edge">
<title>synd_api&#45;&gt;synd_api</title>
<path fill="none" stroke="black" stroke-dasharray="5,2" d="M322.23,-122.06C335.58,-121.62 345.73,-118.85 345.73,-113.75 345.73,-110.24 340.93,-107.84 333.59,-106.54"/>
<polygon fill="black" stroke="black" points="334.03,-103.06 323.74,-105.59 333.36,-110.03 334.03,-103.06"/>
<text text-anchor="middle" x="374.23" y="-109.08" font-family="Times,serif" font-size="14.00">5. email</text>
</g>
<!-- synd_api&#45;&gt;id_provider -->
<g id="edge6" class="edge">
<title>synd_api&#45;&gt;id_provider</title>
<path fill="none" stroke="black" d="M261.58,-131.77C253.37,-143.06 241.35,-157.5 227.83,-167 215.84,-175.43 201.74,-182.3 187.97,-187.77"/>
<polygon fill="black" stroke="black" points="187.1,-184.35 178.96,-191.14 189.56,-190.91 187.1,-184.35"/>
<text text-anchor="middle" x="276.46" y="-153.7" font-family="Times,serif" font-size="14.00">4. verify</text>
</g>
<!-- synd_api&#45;&gt;authorize_server -->
<g id="edge8" class="edge">
<title>synd_api&#45;&gt;authorize_server</title>
<path fill="none" stroke="black" d="M252.07,-96.87C245.1,-91.16 237.48,-84.46 231.08,-77.75 223.53,-69.84 216.05,-60.6 209.53,-51.95"/>
<polygon fill="black" stroke="black" points="212.51,-50.1 203.77,-44.12 206.87,-54.25 212.51,-50.1"/>
<text text-anchor="middle" x="263.71" y="-64.45" font-family="Times,serif" font-size="14.00">4. profile</text>
</g>
<!-- id_provider&#45;&gt;synd_term -->
<g id="edge2" class="edge">
<title>id_provider&#45;&gt;synd_term</title>
<path fill="none" stroke="black" stroke-dasharray="5,2" d="M78.27,-184.96C71.5,-180.08 65.47,-174.15 61.33,-167 57.24,-159.92 56.34,-151.36 56.88,-143.23"/>
<polygon fill="black" stroke="black" points="60.34,-143.76 58.31,-133.36 53.41,-142.76 60.34,-143.76"/>
<text text-anchor="middle" x="82.08" y="-153.7" font-family="Times,serif" font-size="14.00">2. jwt</text>
</g>
<!-- authorize_server&#45;&gt;synd_term -->
<g id="edge4" class="edge">
<title>authorize_server&#45;&gt;synd_term</title>
<path fill="none" stroke="black" stroke-dasharray="5,2" d="M168.3,-42.75C156.67,-53.8 141.55,-67.28 126.83,-77.75 119.82,-82.74 112.02,-87.58 104.37,-91.99"/>
<polygon fill="black" stroke="black" points="102.82,-88.85 95.79,-96.77 106.23,-94.96 102.82,-88.85"/>
<text text-anchor="middle" x="177.71" y="-64.45" font-family="Times,serif" font-size="14.00">2. token</text>
</g>
<!-- authorize_server&#45;&gt;synd_api -->
<g id="edge9" class="edge">
<title>authorize_server&#45;&gt;synd_api</title>
<path fill="none" stroke="black" stroke-dasharray="5,2" d="M258.04,-33.68C272.46,-39.37 285.95,-47.85 294.83,-60.5 300.36,-68.37 298.46,-77.85 294,-86.56"/>
<polygon fill="black" stroke="black" points="291.05,-84.68 288.68,-95.01 296.97,-88.41 291.05,-84.68"/>
<text text-anchor="middle" x="327.33" y="-64.45" font-family="Times,serif" font-size="14.00">5. email</text>
</g>
</g>
</svg>
