<?xml version="1.0" encoding="UTF-8" standalone="no"?>
<!DOCTYPE svg PUBLIC "-//W3C//DTD SVG 1.1//EN"
 "http://www.w3.org/Graphics/SVG/1.1/DTD/svg11.dtd">
<!-- Generated by graphviz version 10.0.1 (0)
 -->
<!-- Pages: 1 -->
<svg width="287pt" height="254pt"
 viewBox="0.00 0.00 287.33 254.00" xmlns="http://www.w3.org/2000/svg" xmlns:xlink="http://www.w3.org/1999/xlink">
<g id="graph0" class="graph" transform="scale(1 1) rotate(0) translate(4 250)">
<polygon fill="white" stroke="none" points="-4,4 -4,-250 283.33,-250 283.33,4 -4,4"/>
<text text-anchor="middle" x="89" y="-228.7" font-family="Helvetica,Arial,sans-serif" font-size="14.00">Device Authorization Grant</text>
<!-- synd_term -->
<g id="node1" class="node">
<title>synd_term</title>
<ellipse fill="none" stroke="black" cx="50.33" cy="-111.5" rx="50.33" ry="18"/>
<text text-anchor="middle" x="50.33" y="-106.45" font-family="Times,serif" font-size="14.00">synd_term</text>
</g>
<!-- synd_api -->
<g id="node2" class="node">
<title>synd_api</title>
<ellipse fill="none" stroke="black" cx="215.33" cy="-111.5" rx="44.19" ry="18"/>
<text text-anchor="middle" x="215.33" y="-106.45" font-family="Times,serif" font-size="14.00">synd_api</text>
</g>
<!-- synd_term&#45;&gt;synd_api -->
<g id="edge5" class="edge">
<title>synd_term&#45;&gt;synd_api</title>
<path fill="none" stroke="black" d="M100.73,-111.5C119.25,-111.5 140.33,-111.5 159.32,-111.5"/>
<polygon fill="black" stroke="black" points="159.31,-115 169.31,-111.5 159.31,-108 159.31,-115"/>
<text text-anchor="middle" x="135.9" y="-117.7" font-family="Times,serif" font-size="14.00">3. request</text>
</g>
<!-- id_provider -->
<g id="node3" class="node">
<title>id_provider</title>
<polygon fill="none" stroke="black" points="169.58,-223 89.08,-223 89.08,-182 169.58,-182 169.58,-223"/>
<text text-anchor="middle" x="129.33" y="-205.7" font-family="Times,serif" font-size="14.00">OIDC</text>
<text text-anchor="middle" x="129.33" y="-189.2" font-family="Times,serif" font-size="14.00">ID Provider</text>
</g>
<!-- synd_term&#45;&gt;id_provider -->
<g id="edge1" class="edge">
<title>synd_term&#45;&gt;id_provider</title>
<path fill="none" stroke="black" d="M57.83,-129.38C63.05,-140.01 70.71,-153.63 79.83,-164 82.99,-167.6 86.55,-171.08 90.27,-174.37"/>
<polygon fill="black" stroke="black" points="88.02,-177.05 97.96,-180.72 92.48,-171.65 88.02,-177.05"/>
<text text-anchor="middle" x="120.08" y="-150.7" font-family="Times,serif" font-size="14.00">1. authenticate</text>
</g>
<!-- authorize_server -->
<g id="node4" class="node">
<title>authorize_server</title>
<polygon fill="none" stroke="black" points="199.83,-41 90.83,-41 90.83,0 199.83,0 199.83,-41"/>
<text text-anchor="middle" x="145.33" y="-23.7" font-family="Times,serif" font-size="14.00">OAuth</text>
<text text-anchor="middle" x="145.33" y="-7.2" font-family="Times,serif" font-size="14.00">Authorize Server</text>
</g>
<!-- synd_term&#45;&gt;authorize_server -->
<g id="edge3" class="edge">
<title>synd_term&#45;&gt;authorize_server</title>
<path fill="none" stroke="black" d="M26.32,-95.21C13.29,-84.98 1.56,-71.2 10.83,-59 19.63,-47.4 49.8,-38.43 79.34,-32.17"/>
<polygon fill="black" stroke="black" points="79.99,-35.61 89.1,-30.21 78.61,-28.75 79.99,-35.61"/>
<text text-anchor="middle" x="51.08" y="-62.2" font-family="Times,serif" font-size="14.00">1. authenticate</text>
</g>
<!-- synd_api&#45;&gt;id_provider -->
<g id="edge6" class="edge">
<title>synd_api&#45;&gt;id_provider</title>
<path fill="none" stroke="black" d="M225.43,-129.06C230.58,-139.82 234.41,-153.71 227.33,-164 216.64,-179.54 198.57,-188.64 180.84,-193.97"/>
<polygon fill="black" stroke="black" points="180.16,-190.53 171.37,-196.45 181.93,-197.3 180.16,-190.53"/>
<text text-anchor="middle" x="254.58" y="-150.7" font-family="Times,serif" font-size="14.00">4. verify</text>
</g>
<!-- synd_api&#45;&gt;authorize_server -->
<g id="edge8" class="edge">
<title>synd_api&#45;&gt;authorize_server</title>
<path fill="none" stroke="black" d="M198.06,-94.82C192.07,-89.01 185.5,-82.2 180.08,-75.5 173.94,-67.92 167.95,-59.22 162.71,-51.05"/>
<polygon fill="black" stroke="black" points="165.79,-49.38 157.53,-42.74 159.85,-53.07 165.79,-49.38"/>
<text text-anchor="middle" x="205.45" y="-62.2" font-family="Times,serif" font-size="14.00">4. profile</text>
</g>
<!-- id_provider&#45;&gt;synd_term -->
<g id="edge2" class="edge">
<title>id_provider&#45;&gt;synd_term</title>
<path fill="none" stroke="black" stroke-dasharray="5,2" d="M88.86,-196.54C68.45,-191.77 45.41,-182.39 32.83,-164 27.8,-156.66 28.85,-147.74 32.17,-139.41"/>
<polygon fill="black" stroke="black" points="35.2,-141.17 36.64,-130.67 28.97,-137.99 35.2,-141.17"/>
<text text-anchor="middle" x="49.08" y="-150.7" font-family="Times,serif" font-size="14.00">2. jwt</text>
</g>
<!-- id_provider&#45;&gt;synd_api -->
<g id="edge7" class="edge">
<title>id_provider&#45;&gt;synd_api</title>
<path fill="none" stroke="black" stroke-dasharray="5,2" d="M146.67,-181.67C155.89,-171.31 167.52,-158.53 178.33,-147.5 181.98,-143.78 185.91,-139.91 189.8,-136.16"/>
<polygon fill="black" stroke="black" points="192.18,-138.73 197.02,-129.31 187.36,-133.65 192.18,-138.73"/>
<text text-anchor="middle" x="200.83" y="-150.7" font-family="Times,serif" font-size="14.00">5. email</text>
</g>
<!-- authorize_server&#45;&gt;synd_term -->
<g id="edge4" class="edge">
<title>authorize_server&#45;&gt;synd_term</title>
<path fill="none" stroke="black" stroke-dasharray="5,2" d="M125.74,-41.27C115.35,-51.62 102.3,-64.4 90.33,-75.5 86.31,-79.22 82,-83.1 77.76,-86.87"/>
<polygon fill="black" stroke="black" points="75.59,-84.11 70.38,-93.34 80.21,-89.37 75.59,-84.11"/>
<text text-anchor="middle" x="129.45" y="-62.2" font-family="Times,serif" font-size="14.00">2. token</text>
</g>
<!-- authorize_server&#45;&gt;synd_api -->
<g id="edge9" class="edge">
<title>authorize_server&#45;&gt;synd_api</title>
<path fill="none" stroke="black" stroke-dasharray="5,2" d="M200.18,-34.77C212.06,-40.28 223.19,-48.06 230.33,-59 235.07,-66.27 234.37,-75.07 231.56,-83.32"/>
<polygon fill="black" stroke="black" points="228.44,-81.74 227.56,-92.3 234.83,-84.59 228.44,-81.74"/>
<text text-anchor="middle" x="256.83" y="-62.2" font-family="Times,serif" font-size="14.00">5. email</text>
</g>
</g>
</svg>
