<?xml version="1.0" encoding="UTF-8" standalone="no"?>
<!DOCTYPE svg PUBLIC "-//W3C//DTD SVG 1.1//EN"
 "http://www.w3.org/Graphics/SVG/1.1/DTD/svg11.dtd">
<!-- Generated by graphviz version 10.0.1 (0)
 -->
<!-- Pages: 1 -->
<svg width="545pt" height="804pt"
 viewBox="0.00 0.00 545.00 803.50" xmlns="http://www.w3.org/2000/svg" xmlns:xlink="http://www.w3.org/1999/xlink">
<g id="graph0" class="graph" transform="scale(1 1) rotate(0) translate(4 799.5)">
<polygon fill="white" stroke="none" points="-4,4 -4,-799.5 541,-799.5 541,4 -4,4"/>
<text text-anchor="middle" x="76.62" y="-778.2" font-family="Helvetica,Arial,sans-serif" font-size="14.00">synd&#45;kvsd request flow</text>
<g id="clust1" class="cluster">
<title>cluster_task_table</title>
<polygon fill="none" stroke="black" points="353,-650.5 353,-764.5 529,-764.5 529,-650.5 353,-650.5"/>
<text text-anchor="middle" x="374.88" y="-656.2" font-family="Helvetica,Arial,sans-serif" font-size="14.00">Task</text>
</g>
<g id="clust2" class="cluster">
<title>cluster_table</title>
<polygon fill="none" stroke="black" points="361,-681.5 361,-756.5 521,-756.5 521,-681.5 361,-681.5"/>
<text text-anchor="middle" x="385.12" y="-687.2" font-family="Helvetica,Arial,sans-serif" font-size="14.00">Table</text>
</g>
<g id="clust4" class="cluster">
<title>cluster_task_kvsd</title>
<polygon fill="none" stroke="black" points="8,-313.5 8,-618 457,-618 457,-313.5 8,-313.5"/>
<text text-anchor="middle" x="29.88" y="-319.2" font-family="Helvetica,Arial,sans-serif" font-size="14.00">Task</text>
</g>
<g id="clust5" class="cluster">
<title>cluster_kvsd</title>
<polygon fill="none" stroke="black" points="16,-344.5 16,-610 449,-610 449,-344.5 16,-344.5"/>
<text text-anchor="middle" x="39" y="-350.2" font-family="Helvetica,Arial,sans-serif" font-size="14.00">Kvsd</text>
</g>
<g id="clust6" class="cluster">
<title>cluster_mw</title>
<polygon fill="none" stroke="black" points="24,-454 24,-602 441,-602 441,-454 24,-454"/>
<text text-anchor="middle" x="66.88" y="-459.7" font-family="Helvetica,Arial,sans-serif" font-size="14.00">Middleware</text>
</g>
<g id="clust8" class="cluster">
<title>cluster_server</title>
<polygon fill="none" stroke="black" points="13,-78.5 13,-281 228,-281 228,-78.5 13,-78.5"/>
<text text-anchor="middle" x="40.88" y="-84.2" font-family="Helvetica,Arial,sans-serif" font-size="14.00">Server</text>
</g>
<g id="clust9" class="cluster">
<title>cluster_handler</title>
<polygon fill="none" stroke="black" points="21,-109.5 21,-273 115,-273 115,-109.5 21,-109.5"/>
<text text-anchor="middle" x="52.62" y="-115.2" font-family="Helvetica,Arial,sans-serif" font-size="14.00">Handler</text>
</g>
<!-- file -->
<g id="node1" class="node">
<title>file</title>
<polygon fill="none" stroke="black" points="513,-748.5 459,-748.5 459,-712.5 513,-712.5 513,-748.5"/>
<text text-anchor="middle" x="486" y="-725.45" font-family="Times,serif" font-size="14.00">File</text>
</g>
<!-- table_rx -->
<g id="node2" class="node">
<title>table_rx</title>
<polygon fill="none" stroke="black" points="423,-748.5 369,-748.5 369,-712.5 423,-712.5 423,-748.5"/>
<text text-anchor="middle" x="396" y="-725.45" font-family="Times,serif" font-size="14.00">rx</text>
</g>
<!-- table_rx&#45;&gt;file -->
<g id="edge11" class="edge">
<title>table_rx&#45;&gt;file</title>
<path fill="none" stroke="black" d="M423.42,-730.5C431.4,-730.5 439.37,-730.5 447.35,-730.5"/>
<polygon fill="black" stroke="black" points="447.11,-734 457.11,-730.5 447.11,-727 447.11,-734"/>
</g>
<!-- logger -->
<g id="node3" class="node">
<title>logger</title>
<polygon fill="none" stroke="black" points="87.5,-521 32.5,-521 32.5,-485 87.5,-485 87.5,-521"/>
<text text-anchor="middle" x="60" y="-497.95" font-family="Times,serif" font-size="14.00">Logger</text>
</g>
<!-- authenticator -->
<g id="node4" class="node">
<title>authenticator</title>
<polygon fill="none" stroke="black" points="213.12,-521 122.88,-521 122.88,-485 213.12,-485 213.12,-521"/>
<text text-anchor="middle" x="168" y="-497.95" font-family="Times,serif" font-size="14.00">Authenticator</text>
</g>
<!-- logger&#45;&gt;authenticator -->
<g id="edge1" class="edge">
<title>logger&#45;&gt;authenticator</title>
<path fill="none" stroke="black" d="M87.84,-503C95.63,-503 103.41,-503 111.19,-503"/>
<polygon fill="black" stroke="black" points="111.09,-506.5 121.09,-503 111.09,-499.5 111.09,-506.5"/>
</g>
<!-- authorizer -->
<g id="node5" class="node">
<title>authorizer</title>
<polygon fill="none" stroke="black" points="323.25,-521 248.75,-521 248.75,-485 323.25,-485 323.25,-521"/>
<text text-anchor="middle" x="286" y="-497.95" font-family="Times,serif" font-size="14.00">Authorizer</text>
</g>
<!-- authenticator&#45;&gt;authorizer -->
<g id="edge2" class="edge">
<title>authenticator&#45;&gt;authorizer</title>
<path fill="none" stroke="black" d="M213.17,-503C221.16,-503 229.16,-503 237.15,-503"/>
<polygon fill="black" stroke="black" points="236.93,-506.5 246.93,-503 236.93,-499.5 236.93,-506.5"/>
</g>
<!-- dispatcher -->
<g id="node6" class="node">
<title>dispatcher</title>
<polygon fill="none" stroke="black" points="433.25,-521 358.75,-521 358.75,-485 433.25,-485 433.25,-521"/>
<text text-anchor="middle" x="396" y="-497.95" font-family="Times,serif" font-size="14.00">Dispatcher</text>
</g>
<!-- authorizer&#45;&gt;dispatcher -->
<g id="edge3" class="edge">
<title>authorizer&#45;&gt;dispatcher</title>
<path fill="none" stroke="black" d="M323.38,-503C331.2,-503 339.01,-503 346.82,-503"/>
<polygon fill="black" stroke="black" points="346.76,-506.5 356.76,-503 346.76,-499.5 346.76,-506.5"/>
</g>
<!-- table_tx -->
<g id="node7" class="node">
<title>table_tx</title>
<polygon fill="none" stroke="black" points="423,-594 369,-594 369,-558 423,-558 423,-594"/>
<text text-anchor="middle" x="396" y="-570.95" font-family="Times,serif" font-size="14.00">tx</text>
</g>
<!-- dispatcher&#45;&gt;table_tx -->
<g id="edge4" class="edge">
<title>dispatcher&#45;&gt;table_tx</title>
<path fill="none" stroke="black" d="M396,-521.19C396,-528.77 396,-537.9 396,-546.46"/>
<polygon fill="black" stroke="black" points="392.5,-546.46 396,-556.46 399.5,-546.46 392.5,-546.46"/>
</g>
<!-- table_tx&#45;&gt;table_rx -->
<g id="edge5" class="edge">
<title>table_tx&#45;&gt;table_rx</title>
<path fill="none" stroke="black" d="M396,-594.49C396,-620.46 396,-669.5 396,-700.79"/>
<polygon fill="black" stroke="black" points="392.5,-700.7 396,-710.7 399.5,-700.7 392.5,-700.7"/>
<text text-anchor="middle" x="430.12" y="-629.2" font-family="Times,serif" font-size="14.00">UnitOfWork</text>
</g>
<!-- kvsd_rx -->
<g id="node8" class="node">
<title>kvsd_rx</title>
<polygon fill="none" stroke="black" points="87,-411.5 33,-411.5 33,-375.5 87,-375.5 87,-411.5"/>
<text text-anchor="middle" x="60" y="-388.45" font-family="Times,serif" font-size="14.00">rx</text>
</g>
<!-- kvsd_rx&#45;&gt;logger -->
<g id="edge10" class="edge">
<title>kvsd_rx&#45;&gt;logger</title>
<path fill="none" stroke="black" d="M60,-411.77C60,-420.38 60,-431.35 60,-442.66"/>
<polygon fill="black" stroke="black" points="56.5,-442.49 60,-452.49 63.5,-442.49 56.5,-442.49"/>
<text text-anchor="middle" x="75" y="-432.7" font-family="Times,serif" font-size="14.00">apply</text>
</g>
<!-- client -->
<g id="node9" class="node">
<title>client</title>
<polygon fill="none" stroke="black" points="217,-36 163,-36 163,0 217,0 217,-36"/>
<text text-anchor="middle" x="190" y="-12.95" font-family="Times,serif" font-size="14.00">Client</text>
</g>
<!-- listener -->
<g id="node10" class="node">
<title>listener</title>
<polygon fill="none" stroke="black" points="220.12,-176.5 159.88,-176.5 159.88,-140.5 220.12,-140.5 220.12,-176.5"/>
<text text-anchor="middle" x="190" y="-153.45" font-family="Times,serif" font-size="14.00">Listener</text>
</g>
<!-- client&#45;&gt;listener -->
<g id="edge6" class="edge">
<title>client&#45;&gt;listener</title>
<path fill="none" stroke="black" d="M190,-36.26C190,-59.38 190,-100.72 190,-128.62"/>
<polygon fill="black" stroke="black" points="186.5,-128.51 190,-138.51 193.5,-128.51 186.5,-128.51"/>
<text text-anchor="middle" x="211" y="-57.2" font-family="Times,serif" font-size="14.00">connect</text>
</g>
<!-- connection -->
<g id="node11" class="node">
<title>connection</title>
<polygon fill="none" stroke="black" points="107.12,-176.5 28.88,-176.5 28.88,-140.5 107.12,-140.5 107.12,-176.5"/>
<text text-anchor="middle" x="68" y="-153.45" font-family="Times,serif" font-size="14.00">Connection</text>
</g>
<!-- listener&#45;&gt;connection -->
<g id="edge7" class="edge">
<title>listener&#45;&gt;connection</title>
<path fill="none" stroke="black" d="M159.48,-158.5C147.21,-158.5 132.73,-158.5 118.95,-158.5"/>
<polygon fill="black" stroke="black" points="119.12,-155 109.12,-158.5 119.12,-162 119.12,-155"/>
<text text-anchor="middle" x="133.5" y="-142.2" font-family="Times,serif" font-size="14.00">accept</text>
</g>
<!-- handler_tx -->
<g id="node12" class="node">
<title>handler_tx</title>
<polygon fill="none" stroke="black" points="87,-265 33,-265 33,-229 87,-229 87,-265"/>
<text text-anchor="middle" x="60" y="-241.95" font-family="Times,serif" font-size="14.00">tx</text>
</g>
<!-- connection&#45;&gt;handler_tx -->
<g id="edge8" class="edge">
<title>connection&#45;&gt;handler_tx</title>
<path fill="none" stroke="black" d="M66.42,-176.59C65.34,-188.24 63.89,-203.95 62.64,-217.48"/>
<polygon fill="black" stroke="black" points="59.18,-216.86 61.74,-227.14 66.15,-217.51 59.18,-216.86"/>
<text text-anchor="middle" x="88.25" y="-197.7" font-family="Times,serif" font-size="14.00">message</text>
</g>
<!-- handler_tx&#45;&gt;kvsd_rx -->
<g id="edge9" class="edge">
<title>handler_tx&#45;&gt;kvsd_rx</title>
<path fill="none" stroke="black" d="M60,-265.43C60,-289.84 60,-334.5 60,-363.85"/>
<polygon fill="black" stroke="black" points="56.5,-363.49 60,-373.49 63.5,-363.49 56.5,-363.49"/>
<text text-anchor="middle" x="94.12" y="-292.2" font-family="Times,serif" font-size="14.00">UnitOfWork</text>
</g>
</g>
</svg>
