<?xml version="1.0" encoding="UTF-8" standalone="no"?>
<!DOCTYPE svg PUBLIC "-//W3C//DTD SVG 1.1//EN"
 "http://www.w3.org/Graphics/SVG/1.1/DTD/svg11.dtd">
<!-- Generated by graphviz version 10.0.1 (0)
 -->
<!-- Pages: 1 -->
<svg width="375pt" height="211pt"
 viewBox="0.00 0.00 375.47 210.50" xmlns="http://www.w3.org/2000/svg" xmlns:xlink="http://www.w3.org/1999/xlink">
<g id="graph0" class="graph" transform="scale(1 1) rotate(0) translate(4 206.5)">
<polygon fill="white" stroke="none" points="-4,4 -4,-206.5 371.47,-206.5 371.47,4 -4,4"/>
<text text-anchor="middle" x="75.12" y="-185.2" font-family="Helvetica,Arial,sans-serif" font-size="14.00">Syndicationd overview</text>
<g id="clust1" class="cluster">
<title>cluster_synd_api</title>
<polygon fill="none" stroke="black" points="105.79,-8 105.79,-171.5 237.79,-171.5 237.79,-8 105.79,-8"/>
<text text-anchor="middle" x="139.29" y="-154.2" font-family="Helvetica,Arial,sans-serif" font-size="14.00">synd&#45;api</text>
</g>
<!-- synd -->
<g id="node1" class="node">
<title>synd</title>
<ellipse fill="none" stroke="black" cx="48.79" cy="-122.5" rx="48.79" ry="18"/>
<text text-anchor="middle" x="48.79" y="-117.45" font-family="Times,serif" font-size="14.00">synd&#45;term</text>
</g>
<!-- feeds -->
<g id="node2" class="node">
<title>feeds</title>
<polygon fill="none" stroke="black" points="224.79,-140.5 170.79,-140.5 170.79,-104.5 224.79,-104.5 224.79,-140.5"/>
<text text-anchor="middle" x="197.79" y="-117.45" font-family="Times,serif" font-size="14.00">Feeds</text>
</g>
<!-- synd&#45;&gt;feeds -->
<g id="edge1" class="edge">
<title>synd&#45;&gt;feeds</title>
<path fill="none" stroke="black" d="M97.99,-122.5C117.84,-122.5 140.39,-122.5 159.04,-122.5"/>
<polygon fill="black" stroke="black" points="158.86,-126 168.86,-122.5 158.85,-119 158.86,-126"/>
<text text-anchor="middle" x="134.19" y="-128.7" font-family="Times,serif" font-size="14.00">subscribe</text>
</g>
<!-- feed_src -->
<g id="node4" class="node">
<title>feed_src</title>
<ellipse fill="none" stroke="black" cx="323.79" cy="-34" rx="43.67" ry="18"/>
<text text-anchor="middle" x="323.79" y="-28.95" font-family="Times,serif" font-size="14.00">Feed Src</text>
</g>
<!-- feeds&#45;&gt;feed_src -->
<g id="edge2" class="edge">
<title>feeds&#45;&gt;feed_src</title>
<path fill="none" stroke="black" d="M222.99,-104.2C243.04,-90.44 271.2,-71.1 292.67,-56.37"/>
<polygon fill="black" stroke="black" points="294.49,-59.36 300.76,-50.82 290.53,-53.59 294.49,-59.36"/>
<text text-anchor="middle" x="319.42" y="-73.2" font-family="Times,serif" font-size="14.00">periodically fetch</text>
</g>
<!-- feed_entries_cache -->
<g id="node3" class="node">
<title>feed_entries_cache</title>
<polygon fill="none" stroke="black" points="230.04,-52 113.54,-52 113.54,-16 230.04,-16 230.04,-52"/>
<text text-anchor="middle" x="171.79" y="-28.95" font-family="Times,serif" font-size="14.00">Feed entries cache</text>
</g>
<!-- feed_entries_cache&#45;&gt;synd -->
<g id="edge4" class="edge">
<title>feed_entries_cache&#45;&gt;synd</title>
<path fill="none" stroke="black" d="M147.03,-52.41C127.77,-65.96 100.9,-84.85 80.14,-99.46"/>
<polygon fill="black" stroke="black" points="78.19,-96.55 72.02,-105.16 82.21,-102.28 78.19,-96.55"/>
<text text-anchor="middle" x="134.29" y="-73.2" font-family="Times,serif" font-size="14.00">fetch</text>
</g>
<!-- feed_src&#45;&gt;feed_entries_cache -->
<g id="edge3" class="edge">
<title>feed_src&#45;&gt;feed_entries_cache</title>
<path fill="none" stroke="black" d="M280.02,-34C267.99,-34 254.64,-34 241.54,-34"/>
<polygon fill="black" stroke="black" points="241.64,-30.5 231.64,-34 241.64,-37.5 241.64,-30.5"/>
<text text-anchor="middle" x="255.08" y="-40.2" font-family="Times,serif" font-size="14.00">stored</text>
</g>
</g>
</svg>
