<?xml version="1.0" encoding="UTF-8" standalone="no"?>
<!DOCTYPE svg PUBLIC "-//W3C//DTD SVG 1.1//EN"
 "http://www.w3.org/Graphics/SVG/1.1/DTD/svg11.dtd">
<!-- Generated by graphviz version 10.0.1 (0)
 -->
<!-- Pages: 1 -->
<svg width="367pt" height="211pt"
 viewBox="0.00 0.00 366.80 211.00" xmlns="http://www.w3.org/2000/svg" xmlns:xlink="http://www.w3.org/1999/xlink">
<g id="graph0" class="graph" transform="scale(1 1) rotate(0) translate(4 207)">
<polygon fill="white" stroke="none" points="-4,4 -4,-207 362.8,-207 362.8,4 -4,4"/>
<text text-anchor="middle" x="105.88" y="-185.7" font-family="Helvetica,Arial,sans-serif" font-size="14.00">Syndicationd packages overview</text>
<!-- stdx -->
<g id="node1" class="node">
<title>stdx</title>
<ellipse fill="none" stroke="black" cx="64.4" cy="-90" rx="48.28" ry="18"/>
<text text-anchor="middle" x="64.4" y="-84.95" font-family="Times,serif" font-size="14.00">synd_stdx</text>
</g>
<!-- o11y -->
<g id="node2" class="node">
<title>o11y</title>
<ellipse fill="none" stroke="black" cx="295.4" cy="-162" rx="51.35" ry="18"/>
<text text-anchor="middle" x="295.4" y="-156.95" font-family="Times,serif" font-size="14.00">synd_o11y</text>
</g>
<!-- auth -->
<g id="node3" class="node">
<title>auth</title>
<ellipse fill="none" stroke="black" cx="179.4" cy="-90" rx="48.79" ry="18"/>
<text text-anchor="middle" x="179.4" y="-84.95" font-family="Times,serif" font-size="14.00">synd_auth</text>
</g>
<!-- feed -->
<g id="node4" class="node">
<title>feed</title>
<ellipse fill="none" stroke="black" cx="295.4" cy="-90" rx="48.79" ry="18"/>
<text text-anchor="middle" x="295.4" y="-84.95" font-family="Times,serif" font-size="14.00">synd_feed</text>
</g>
<!-- feed&#45;&gt;o11y -->
<g id="edge2" class="edge">
<title>feed&#45;&gt;o11y</title>
<path fill="none" stroke="black" d="M295.4,-108.3C295.4,-115.59 295.4,-124.27 295.4,-132.46"/>
<polygon fill="black" stroke="black" points="291.9,-132.38 295.4,-142.38 298.9,-132.38 291.9,-132.38"/>
</g>
<!-- kvsd -->
<g id="node5" class="node">
<title>kvsd</title>
<polygon fill="none" stroke="black" points="101.27,-36 27.52,-36 27.52,0 101.27,0 101.27,-36"/>
<text text-anchor="middle" x="64.4" y="-12.95" font-family="Times,serif" font-size="14.00">synd_kvsd</text>
</g>
<!-- kvsd&#45;&gt;stdx -->
<g id="edge1" class="edge">
<title>kvsd&#45;&gt;stdx:s</title>
<path fill="none" stroke="black" d="M64.4,-36.19C64.4,-43.4 64.4,-52.11 64.4,-60.77"/>
<polygon fill="black" stroke="black" points="60.9,-60.49 64.4,-70.49 67.9,-60.49 60.9,-60.49"/>
</g>
<!-- term -->
<g id="node6" class="node">
<title>term</title>
<polygon fill="none" stroke="black" points="310.27,-36 236.52,-36 236.52,0 310.27,0 310.27,-36"/>
<text text-anchor="middle" x="273.4" y="-12.95" font-family="Times,serif" font-size="14.00">synd_term</text>
</g>
<!-- term&#45;&gt;stdx -->
<g id="edge3" class="edge">
<title>term&#45;&gt;stdx:se</title>
<path fill="none" stroke="black" d="M236.22,-34.96C204.16,-47.87 156.28,-65.15 112.68,-73 111.66,-73.18 101.26,-73.07 92.72,-73.2"/>
<polygon fill="black" stroke="black" points="92.64,-69.7 82.91,-73.89 93.13,-76.68 92.64,-69.7"/>
</g>
<!-- term&#45;&gt;o11y -->
<g id="edge4" class="edge">
<title>term&#45;&gt;o11y</title>
<path fill="none" stroke="black" d="M310.39,-33.72C326.67,-42.28 344.18,-54.83 353.4,-72 360.97,-86.1 359.85,-93.36 353.4,-108 348.13,-119.95 338.7,-130.37 328.95,-138.73"/>
<polygon fill="black" stroke="black" points="326.86,-135.92 321.2,-144.88 331.21,-141.41 326.86,-135.92"/>
</g>
<!-- term&#45;&gt;auth -->
<g id="edge5" class="edge">
<title>term&#45;&gt;auth</title>
<path fill="none" stroke="black" d="M250.16,-36.3C237.91,-45.43 222.74,-56.72 209.59,-66.52"/>
<polygon fill="black" stroke="black" points="207.59,-63.64 201.66,-72.42 211.77,-69.26 207.59,-63.64"/>
</g>
<!-- term&#45;&gt;feed -->
<g id="edge6" class="edge">
<title>term&#45;&gt;feed</title>
<path fill="none" stroke="black" d="M278.84,-36.3C281.18,-43.76 283.98,-52.68 286.61,-61.03"/>
<polygon fill="black" stroke="black" points="283.23,-61.96 289.57,-70.45 289.91,-59.86 283.23,-61.96"/>
</g>
<!-- api -->
<g id="node7" class="node">
<title>api</title>
<polygon fill="none" stroke="black" points="197.77,-36 133.02,-36 133.02,0 197.77,0 197.77,-36"/>
<text text-anchor="middle" x="165.4" y="-12.95" font-family="Times,serif" font-size="14.00">synd_api</text>
</g>
<!-- api&#45;&gt;stdx -->
<g id="edge7" class="edge">
<title>api&#45;&gt;stdx:se</title>
<path fill="none" stroke="black" d="M154.07,-36.34C144.67,-49.04 130.07,-65.35 112.68,-73 111.73,-73.42 101.32,-73.26 92.75,-73.32"/>
<polygon fill="black" stroke="black" points="92.68,-69.81 82.91,-73.91 93.1,-76.8 92.68,-69.81"/>
</g>
<!-- api&#45;&gt;o11y -->
<g id="edge8" class="edge">
<title>api&#45;&gt;o11y</title>
<path fill="none" stroke="black" d="M132.77,-29.42C87.07,-44.09 9.31,-69.35 7.4,-72 -1.94,-84.99 -2.84,-95.71 7.4,-108 35.52,-141.77 157,-154.1 232.92,-158.55"/>
<polygon fill="black" stroke="black" points="232.54,-162.03 242.72,-159.09 232.93,-155.04 232.54,-162.03"/>
</g>
<!-- api&#45;&gt;auth -->
<g id="edge9" class="edge">
<title>api&#45;&gt;auth</title>
<path fill="none" stroke="black" d="M168.86,-36.3C170.33,-43.68 172.09,-52.48 173.75,-60.75"/>
<polygon fill="black" stroke="black" points="170.29,-61.29 175.68,-70.41 177.15,-59.92 170.29,-61.29"/>
</g>
<!-- api&#45;&gt;feed -->
<g id="edge10" class="edge">
<title>api&#45;&gt;feed</title>
<path fill="none" stroke="black" d="M197.87,-36.48C216.36,-46.44 239.57,-58.94 258.72,-69.25"/>
<polygon fill="black" stroke="black" points="256.8,-72.19 267.26,-73.85 260.11,-66.03 256.8,-72.19"/>
</g>
</g>
</svg>
