<?xml version="1.0" encoding="UTF-8" standalone="no"?>
<!DOCTYPE svg PUBLIC "-//W3C//DTD SVG 1.1//EN"
 "http://www.w3.org/Graphics/SVG/1.1/DTD/svg11.dtd">
<!-- Generated by graphviz version 10.0.1 (0)
 -->
<!-- Pages: 1 -->
<svg width="251pt" height="211pt"
 viewBox="0.00 0.00 251.02 211.00" xmlns="http://www.w3.org/2000/svg" xmlns:xlink="http://www.w3.org/1999/xlink">
<g id="graph0" class="graph" transform="scale(1 1) rotate(0) translate(4 207)">
<polygon fill="white" stroke="none" points="-4,4 -4,-207 247.02,-207 247.02,4 -4,4"/>
<text text-anchor="middle" x="105.88" y="-185.7" font-family="Helvetica,Arial,sans-serif" font-size="14.00">Syndicationd packages overview</text>
<!-- o11y -->
<g id="node1" class="node">
<title>o11y</title>
<ellipse fill="none" stroke="black" cx="62.84" cy="-162" rx="51.35" ry="18"/>
<text text-anchor="middle" x="62.84" y="-156.95" font-family="Times,serif" font-size="14.00">synd_o11y</text>
</g>
<!-- auth -->
<g id="node2" class="node">
<title>auth</title>
<ellipse fill="none" stroke="black" cx="178.84" cy="-90" rx="48.79" ry="18"/>
<text text-anchor="middle" x="178.84" y="-84.95" font-family="Times,serif" font-size="14.00">synd_auth</text>
</g>
<!-- feed -->
<g id="node3" class="node">
<title>feed</title>
<ellipse fill="none" stroke="black" cx="62.84" cy="-90" rx="48.79" ry="18"/>
<text text-anchor="middle" x="62.84" y="-84.95" font-family="Times,serif" font-size="14.00">synd_feed</text>
</g>
<!-- feed&#45;&gt;o11y -->
<g id="edge1" class="edge">
<title>feed&#45;&gt;o11y</title>
<path fill="none" stroke="black" d="M62.84,-108.3C62.84,-115.59 62.84,-124.27 62.84,-132.46"/>
<polygon fill="black" stroke="black" points="59.34,-132.38 62.84,-142.38 66.34,-132.38 59.34,-132.38"/>
</g>
<!-- term -->
<g id="node4" class="node">
<title>term</title>
<polygon fill="none" stroke="black" points="215.72,-36 141.97,-36 141.97,0 215.72,0 215.72,-36"/>
<text text-anchor="middle" x="178.84" y="-12.95" font-family="Times,serif" font-size="14.00">synd_term</text>
</g>
<!-- term&#45;&gt;o11y -->
<g id="edge2" class="edge">
<title>term&#45;&gt;o11y</title>
<path fill="none" stroke="black" d="M206.48,-36.46C218.17,-45.49 230.51,-57.65 236.84,-72 243.29,-86.64 246.36,-95.14 236.84,-108 211.44,-142.3 164.35,-155.15 125.57,-159.65"/>
<polygon fill="black" stroke="black" points="125.47,-156.14 115.86,-160.6 126.15,-163.11 125.47,-156.14"/>
</g>
<!-- term&#45;&gt;auth -->
<g id="edge3" class="edge">
<title>term&#45;&gt;auth</title>
<path fill="none" stroke="black" d="M178.84,-36.3C178.84,-43.59 178.84,-52.27 178.84,-60.46"/>
<polygon fill="black" stroke="black" points="175.34,-60.38 178.84,-70.38 182.34,-60.38 175.34,-60.38"/>
</g>
<!-- term&#45;&gt;feed -->
<g id="edge4" class="edge">
<title>term&#45;&gt;feed</title>
<path fill="none" stroke="black" d="M149.87,-36.48C133.82,-46.16 113.79,-58.26 96.99,-68.39"/>
<polygon fill="black" stroke="black" points="95.57,-65.16 88.82,-73.32 99.19,-71.15 95.57,-65.16"/>
</g>
<!-- api -->
<g id="node5" class="node">
<title>api</title>
<polygon fill="none" stroke="black" points="95.22,-36 30.47,-36 30.47,0 95.22,0 95.22,-36"/>
<text text-anchor="middle" x="62.84" y="-12.95" font-family="Times,serif" font-size="14.00">synd_api</text>
</g>
<!-- api&#45;&gt;o11y -->
<g id="edge5" class="edge">
<title>api&#45;&gt;o11y</title>
<path fill="none" stroke="black" d="M35.2,-36.46C23.52,-45.49 11.17,-57.65 4.84,-72 -1.61,-86.64 -1.61,-93.36 4.84,-108 10.11,-119.95 19.54,-130.37 29.29,-138.73"/>
<polygon fill="black" stroke="black" points="27.03,-141.41 37.04,-144.88 31.38,-135.92 27.03,-141.41"/>
</g>
<!-- api&#45;&gt;auth -->
<g id="edge6" class="edge">
<title>api&#45;&gt;auth</title>
<path fill="none" stroke="black" d="M91.81,-36.48C107.86,-46.16 127.89,-58.26 144.69,-68.39"/>
<polygon fill="black" stroke="black" points="142.49,-71.15 152.86,-73.32 146.11,-65.16 142.49,-71.15"/>
</g>
<!-- api&#45;&gt;feed -->
<g id="edge7" class="edge">
<title>api&#45;&gt;feed</title>
<path fill="none" stroke="black" d="M62.84,-36.3C62.84,-43.59 62.84,-52.27 62.84,-60.46"/>
<polygon fill="black" stroke="black" points="59.34,-60.38 62.84,-70.38 66.34,-60.38 59.34,-60.38"/>
</g>
</g>
</svg>
