<?xml version="1.0" encoding="UTF-8" standalone="no"?>
<!DOCTYPE svg PUBLIC "-//W3C//DTD SVG 1.1//EN"
 "http://www.w3.org/Graphics/SVG/1.1/DTD/svg11.dtd">
<!-- Generated by graphviz version 10.0.1 (0)
 -->
<!-- Pages: 1 -->
<svg width="540pt" height="217pt"
 viewBox="0.00 0.00 539.66 217.00" xmlns="http://www.w3.org/2000/svg" xmlns:xlink="http://www.w3.org/1999/xlink">
<g id="graph0" class="graph" transform="scale(1 1) rotate(0) translate(4 213)">
<polygon fill="white" stroke="none" points="-4,4 -4,-213 535.66,-213 535.66,4 -4,4"/>
<text text-anchor="middle" x="106.25" y="-191.7" font-family="Helvetica,Arial,sans-serif" font-size="14.00">Syndicationd packages overview</text>
<!-- stdx -->
<g id="node1" class="node">
<title>stdx</title>
<ellipse fill="none" stroke="black" cx="108.45" cy="-90" rx="61.2" ry="18"/>
<text text-anchor="middle" x="108.45" y="-85.33" font-family="Times,serif" font-size="14.00">synd_stdx</text>
</g>
<!-- o11y -->
<g id="node2" class="node">
<title>o11y</title>
<ellipse fill="none" stroke="black" cx="134.45" cy="-162" rx="63.83" ry="18"/>
<text text-anchor="middle" x="134.45" y="-157.32" font-family="Times,serif" font-size="14.00">synd_o11y</text>
</g>
<!-- auth -->
<g id="node3" class="node">
<title>auth</title>
<ellipse fill="none" stroke="black" cx="424.45" cy="-162" rx="62.26" ry="18"/>
<text text-anchor="middle" x="424.45" y="-157.32" font-family="Times,serif" font-size="14.00">synd_auth</text>
</g>
<!-- feed -->
<g id="node4" class="node">
<title>feed</title>
<ellipse fill="none" stroke="black" cx="248.45" cy="-90" rx="61.2" ry="18"/>
<text text-anchor="middle" x="248.45" y="-85.33" font-family="Times,serif" font-size="14.00">synd_feed</text>
</g>
<!-- feed&#45;&gt;o11y -->
<g id="edge1" class="edge">
<title>feed&#45;&gt;o11y</title>
<path fill="none" stroke="black" d="M222.87,-106.71C207.28,-116.28 187.14,-128.65 170.02,-139.16"/>
<polygon fill="black" stroke="black" points="168.32,-136.09 161.63,-144.31 171.99,-142.06 168.32,-136.09"/>
</g>
<!-- test -->
<g id="node5" class="node">
<title>test</title>
<ellipse fill="none" stroke="black" cx="424.45" cy="-90" rx="59.1" ry="18"/>
<text text-anchor="middle" x="424.45" y="-85.33" font-family="Times,serif" font-size="14.00">synd_test</text>
</g>
<!-- test&#45;&gt;auth -->
<g id="edge14" class="edge">
<title>test&#45;&gt;auth</title>
<path fill="none" stroke="black" d="M424.45,-108.3C424.45,-115.59 424.45,-124.27 424.45,-132.46"/>
<polygon fill="black" stroke="black" points="420.95,-132.38 424.45,-142.38 427.95,-132.38 420.95,-132.38"/>
</g>
<!-- kvsd -->
<g id="node6" class="node">
<title>kvsd</title>
<polygon fill="none" stroke="black" points="90.2,-36 0.7,-36 0.7,0 90.2,0 90.2,-36"/>
<text text-anchor="middle" x="45.45" y="-13.32" font-family="Times,serif" font-size="14.00">synd_kvsd</text>
</g>
<!-- kvsd&#45;&gt;stdx -->
<g id="edge12" class="edge">
<title>kvsd&#45;&gt;stdx:s</title>
<path fill="none" stroke="black" d="M84.63,-36.42C94.14,-42.74 102.66,-50.85 106.41,-60.87"/>
<polygon fill="black" stroke="black" points="102.94,-61.3 108.18,-70.51 109.82,-60.04 102.94,-61.3"/>
</g>
<!-- kvsd&#45;&gt;o11y -->
<g id="edge13" class="edge">
<title>kvsd&#45;&gt;o11y</title>
<path fill="none" stroke="black" d="M27.67,-36.28C10.75,-54.89 -10.02,-84.92 5.45,-108 19.71,-129.28 44.22,-142.02 68.07,-149.65"/>
<polygon fill="black" stroke="black" points="66.9,-152.96 77.48,-152.38 68.86,-146.23 66.9,-152.96"/>
</g>
<!-- term -->
<g id="node7" class="node">
<title>term</title>
<polygon fill="none" stroke="black" points="293.95,-36 202.95,-36 202.95,0 293.95,0 293.95,-36"/>
<text text-anchor="middle" x="248.45" y="-13.32" font-family="Times,serif" font-size="14.00">synd_term</text>
</g>
<!-- term&#45;&gt;stdx -->
<g id="edge2" class="edge">
<title>term&#45;&gt;stdx:se</title>
<path fill="none" stroke="black" d="M202.58,-30.47C180.68,-37.68 154.95,-48.82 134.93,-65.32"/>
<polygon fill="black" stroke="black" points="132.63,-62.68 127.57,-71.98 137.33,-67.86 132.63,-62.68"/>
</g>
<!-- term&#45;&gt;o11y -->
<g id="edge3" class="edge">
<title>term&#45;&gt;o11y</title>
<path fill="none" stroke="black" d="M202.84,-24.01C147.31,-31.16 58.44,-46.34 38.45,-72 28.62,-84.62 30.32,-94.22 38.45,-108 47.99,-124.16 64.41,-135.73 81,-143.85"/>
<polygon fill="black" stroke="black" points="79.35,-146.95 89.91,-147.85 82.22,-140.56 79.35,-146.95"/>
</g>
<!-- term&#45;&gt;auth -->
<g id="edge4" class="edge">
<title>term&#45;&gt;auth</title>
<path fill="none" stroke="black" d="M272.61,-36.27C286.34,-46.34 303.69,-59.48 318.45,-72 336.2,-87.04 338.81,-92.83 356.45,-108 368.27,-118.16 381.73,-128.83 393.54,-137.91"/>
<polygon fill="black" stroke="black" points="391.31,-140.61 401.38,-143.89 395.55,-135.05 391.31,-140.61"/>
</g>
<!-- term&#45;&gt;feed -->
<g id="edge5" class="edge">
<title>term&#45;&gt;feed</title>
<path fill="none" stroke="black" d="M248.45,-36.3C248.45,-43.59 248.45,-52.27 248.45,-60.46"/>
<polygon fill="black" stroke="black" points="244.95,-60.38 248.45,-70.38 251.95,-60.38 244.95,-60.38"/>
</g>
<!-- term&#45;&gt;test -->
<g id="edge6" class="edge">
<title>term&#45;&gt;test</title>
<path fill="none" stroke="black" stroke-dasharray="1,5" d="M292.41,-36.48C318.81,-46.98 352.33,-60.32 378.99,-70.92"/>
<polygon fill="black" stroke="black" points="377.59,-74.13 388.18,-74.57 380.18,-67.63 377.59,-74.13"/>
</g>
<!-- api -->
<g id="node8" class="node">
<title>api</title>
<polygon fill="none" stroke="black" points="463.58,-36 385.33,-36 385.33,0 463.58,0 463.58,-36"/>
<text text-anchor="middle" x="424.45" y="-13.32" font-family="Times,serif" font-size="14.00">synd_api</text>
</g>
<!-- api&#45;&gt;stdx -->
<g id="edge7" class="edge">
<title>api&#45;&gt;stdx:se</title>
<path fill="none" stroke="black" d="M385.12,-24.92C316.13,-35.44 176.82,-57.37 136.95,-68.81"/>
<polygon fill="black" stroke="black" points="135.85,-65.48 127.86,-72.44 138.44,-71.98 135.85,-65.48"/>
</g>
<!-- api&#45;&gt;o11y -->
<g id="edge8" class="edge">
<title>api&#45;&gt;o11y</title>
<path fill="none" stroke="black" d="M458.17,-36.38C471.41,-45.12 485.16,-57.07 492.45,-72 499.47,-86.38 502.9,-95.89 492.45,-108 474.07,-129.31 306.08,-146.75 206.89,-155.3"/>
<polygon fill="black" stroke="black" points="206.62,-151.81 196.95,-156.15 207.21,-158.78 206.62,-151.81"/>
</g>
<!-- api&#45;&gt;auth -->
<g id="edge9" class="edge">
<title>api&#45;&gt;auth</title>
<path fill="none" stroke="black" d="M463.83,-28.78C486.1,-36.54 512.08,-49.89 525.45,-72 533.73,-85.69 533.73,-94.31 525.45,-108 515.22,-124.93 497.59,-136.72 479.9,-144.8"/>
<polygon fill="black" stroke="black" points="478.8,-141.46 470.93,-148.55 481.5,-147.92 478.8,-141.46"/>
</g>
<!-- api&#45;&gt;feed -->
<g id="edge10" class="edge">
<title>api&#45;&gt;feed</title>
<path fill="none" stroke="black" d="M384.95,-34.71C358.08,-45.4 322.44,-59.57 294.31,-70.76"/>
<polygon fill="black" stroke="black" points="293.34,-67.38 285.34,-74.33 295.93,-73.88 293.34,-67.38"/>
</g>
<!-- api&#45;&gt;test -->
<g id="edge11" class="edge">
<title>api&#45;&gt;test</title>
<path fill="none" stroke="black" stroke-dasharray="1,5" d="M424.45,-36.3C424.45,-43.59 424.45,-52.27 424.45,-60.46"/>
<polygon fill="black" stroke="black" points="420.95,-60.38 424.45,-70.38 427.95,-60.38 420.95,-60.38"/>
</g>
</g>
</svg>
