<?xml version="1.0" encoding="UTF-8" standalone="no"?>
<!DOCTYPE svg PUBLIC "-//W3C//DTD SVG 1.1//EN"
 "http://www.w3.org/Graphics/SVG/1.1/DTD/svg11.dtd">
<!-- Generated by graphviz version 12.2.1 (0)
 -->
<!-- Pages: 1 -->
<svg width="906pt" height="433pt"
 viewBox="0.00 0.00 906.42 433.00" xmlns="http://www.w3.org/2000/svg" xmlns:xlink="http://www.w3.org/1999/xlink">
<g id="graph0" class="graph" transform="scale(1 1) rotate(0) translate(4 429)">
<polygon fill="white" stroke="none" points="-4,4 -4,-429 902.42,-429 902.42,4 -4,4"/>
<text text-anchor="middle" x="114.12" y="-407.7" font-family="Helvetica,Arial,sans-serif" font-size="14.00">Syndicationd packages overview</text>
<!-- support -->
<g id="node1" class="node">
<title>support</title>
<ellipse fill="none" stroke="black" cx="785.56" cy="-234" rx="78.57" ry="18"/>
<text text-anchor="middle" x="785.56" y="-229.32" font-family="Times,serif" font-size="14.00">synd_support</text>
</g>
<!-- protocol -->
<g id="node2" class="node">
<title>protocol</title>
<ellipse fill="none" stroke="black" cx="569.56" cy="-234" rx="80.67" ry="18"/>
<text text-anchor="middle" x="569.56" y="-229.32" font-family="Times,serif" font-size="14.00">synd_protocol</text>
</g>
<!-- auth -->
<g id="node3" class="node">
<title>auth</title>
<ellipse fill="none" stroke="black" cx="411.56" cy="-306" rx="62.26" ry="18"/>
<text text-anchor="middle" x="411.56" y="-301.32" font-family="Times,serif" font-size="14.00">synd_auth</text>
</g>
<!-- feed -->
<g id="node4" class="node">
<title>feed</title>
<ellipse fill="none" stroke="black" cx="232.56" cy="-378" rx="61.2" ry="18"/>
<text text-anchor="middle" x="232.56" y="-373.32" font-family="Times,serif" font-size="14.00">synd_feed</text>
</g>
<!-- registry -->
<g id="node5" class="node">
<title>registry</title>
<ellipse fill="none" stroke="black" cx="178.56" cy="-306" rx="79.62" ry="18"/>
<text text-anchor="middle" x="178.56" y="-301.32" font-family="Times,serif" font-size="14.00">synd_registry</text>
</g>
<!-- registry&#45;&gt;feed -->
<g id="edge29" class="edge">
<title>registry&#45;&gt;feed</title>
<path fill="none" stroke="black" d="M191.63,-323.95C197.93,-332.11 205.62,-342.09 212.63,-351.18"/>
<polygon fill="black" stroke="black" points="209.8,-353.23 218.68,-359.01 215.34,-348.96 209.8,-353.23"/>
</g>
<!-- persistence -->
<g id="node6" class="node">
<title>persistence</title>
<ellipse fill="none" stroke="black" cx="122.56" cy="-234" rx="97.51" ry="18"/>
<text text-anchor="middle" x="122.56" y="-229.32" font-family="Times,serif" font-size="14.00">synd_persistence</text>
</g>
<!-- persistence&#45;&gt;feed -->
<g id="edge27" class="edge">
<title>persistence&#45;&gt;feed</title>
<path fill="none" stroke="black" d="M107.39,-251.94C92.44,-270.79 73.93,-301.55 89.56,-324 106.58,-348.46 136.28,-361.66 164.21,-368.77"/>
<polygon fill="black" stroke="black" points="163.21,-372.13 173.74,-370.95 164.77,-365.31 163.21,-372.13"/>
</g>
<!-- persistence&#45;&gt;registry -->
<g id="edge28" class="edge">
<title>persistence&#45;&gt;registry</title>
<path fill="none" stroke="black" d="M136.4,-252.3C142.84,-260.36 150.64,-270.11 157.77,-279.02"/>
<polygon fill="black" stroke="black" points="154.95,-281.09 163.93,-286.71 160.41,-276.72 154.95,-281.09"/>
</g>
<!-- client -->
<g id="node7" class="node">
<title>client</title>
<ellipse fill="none" stroke="black" cx="638.56" cy="-162" rx="67.52" ry="18"/>
<text text-anchor="middle" x="638.56" y="-157.32" font-family="Times,serif" font-size="14.00">synd_client</text>
</g>
<!-- client&#45;&gt;support -->
<g id="edge24" class="edge">
<title>client&#45;&gt;support:se</title>
<path fill="none" stroke="black" d="M689.51,-174.15C755.19,-188.65 861.37,-212.52 864.12,-216 865.68,-217.96 832.76,-216.36 814.71,-216.38"/>
<polygon fill="black" stroke="black" points="814.58,-212.88 804.86,-217.09 815.09,-219.86 814.58,-212.88"/>
</g>
<!-- client&#45;&gt;protocol -->
<g id="edge25" class="edge">
<title>client&#45;&gt;protocol</title>
<path fill="none" stroke="black" d="M622.2,-179.59C613.82,-188.09 603.44,-198.63 594.11,-208.09"/>
<polygon fill="black" stroke="black" points="591.86,-205.39 587.33,-214.97 596.84,-210.3 591.86,-205.39"/>
</g>
<!-- client&#45;&gt;feed -->
<g id="edge26" class="edge">
<title>client&#45;&gt;feed</title>
<path fill="none" stroke="black" d="M649.97,-180.16C661.07,-199.2 674.27,-230.13 659.56,-252 619.06,-312.2 408.07,-351.36 298.61,-367.94"/>
<polygon fill="black" stroke="black" points="298.26,-364.45 288.88,-369.39 299.29,-371.38 298.26,-364.45"/>
</g>
<!-- runtime -->
<g id="node8" class="node">
<title>runtime</title>
<ellipse fill="none" stroke="black" cx="427.56" cy="-90" rx="79.62" ry="18"/>
<text text-anchor="middle" x="427.56" y="-85.33" font-family="Times,serif" font-size="14.00">synd_runtime</text>
</g>
<!-- runtime&#45;&gt;support -->
<g id="edge10" class="edge">
<title>runtime&#45;&gt;support:se</title>
<path fill="none" stroke="black" d="M505.1,-94.53C565.02,-99.75 648.73,-112.58 715.56,-144 738.11,-154.61 736.84,-167.77 758.56,-180 801.75,-204.32 835.28,-175.69 864.12,-216 865.58,-218.04 832.71,-216.4 814.69,-216.39"/>
<polygon fill="black" stroke="black" points="814.59,-212.89 804.86,-217.1 815.09,-219.87 814.59,-212.89"/>
</g>
<!-- runtime&#45;&gt;protocol -->
<g id="edge11" class="edge">
<title>runtime&#45;&gt;protocol</title>
<path fill="none" stroke="black" d="M444.4,-107.85C469.28,-132.72 515.98,-179.43 544.77,-208.21"/>
<polygon fill="black" stroke="black" points="542.11,-210.51 551.66,-215.1 547.06,-205.56 542.11,-210.51"/>
</g>
<!-- runtime&#45;&gt;feed -->
<g id="edge12" class="edge">
<title>runtime&#45;&gt;feed</title>
<path fill="none" stroke="black" d="M351.55,-95.62C259.68,-102.3 111.44,-116.94 63.56,-144 27.54,-164.36 18.48,-177.04 4.56,-216 -24.39,-297 96.44,-343.08 173.25,-363.72"/>
<polygon fill="black" stroke="black" points="172.21,-367.07 182.77,-366.2 173.98,-360.3 172.21,-367.07"/>
</g>
<!-- runtime&#45;&gt;registry -->
<g id="edge13" class="edge">
<title>runtime&#45;&gt;registry</title>
<path fill="none" stroke="black" d="M363.25,-100.94C258.02,-118.68 56.59,-159.31 15.56,-216 -12.98,-255.42 48.8,-279.3 104.31,-292.25"/>
<polygon fill="black" stroke="black" points="103.3,-295.61 113.82,-294.37 104.82,-288.78 103.3,-295.61"/>
</g>
<!-- runtime&#45;&gt;persistence -->
<g id="edge14" class="edge">
<title>runtime&#45;&gt;persistence</title>
<path fill="none" stroke="black" d="M393.75,-106.74C338.62,-132.41 229.34,-183.29 167.66,-212"/>
<polygon fill="black" stroke="black" points="166.41,-208.72 158.82,-216.12 169.36,-215.07 166.41,-208.72"/>
</g>
<!-- runtime&#45;&gt;client -->
<g id="edge15" class="edge">
<title>runtime&#45;&gt;client</title>
<path fill="none" stroke="black" d="M471.02,-105.42C504.58,-116.55 551.14,-132 586.66,-143.78"/>
<polygon fill="black" stroke="black" points="585.27,-147.01 595.86,-146.84 587.47,-140.37 585.27,-147.01"/>
</g>
<!-- api -->
<g id="node12" class="node">
<title>api</title>
<polygon fill="none" stroke="black" points="407.68,-180 329.43,-180 329.43,-144 407.68,-144 407.68,-180"/>
<text text-anchor="middle" x="368.56" y="-157.32" font-family="Times,serif" font-size="14.00">synd_api</text>
</g>
<!-- runtime&#45;&gt;api -->
<g id="edge16" class="edge">
<title>runtime&#45;&gt;api</title>
<path fill="none" stroke="black" d="M413.27,-107.95C406.42,-116.08 398.05,-126 390.42,-135.06"/>
<polygon fill="black" stroke="black" points="387.86,-132.67 384.09,-142.57 393.21,-137.18 387.86,-132.67"/>
</g>
<!-- test -->
<g id="node9" class="node">
<title>test</title>
<ellipse fill="none" stroke="black" cx="411.56" cy="-234" rx="59.1" ry="18"/>
<text text-anchor="middle" x="411.56" y="-229.32" font-family="Times,serif" font-size="14.00">synd_test</text>
</g>
<!-- test&#45;&gt;auth -->
<g id="edge30" class="edge">
<title>test&#45;&gt;auth</title>
<path fill="none" stroke="black" d="M411.56,-252.3C411.56,-259.59 411.56,-268.27 411.56,-276.46"/>
<polygon fill="black" stroke="black" points="408.06,-276.38 411.56,-286.38 415.06,-276.38 408.06,-276.38"/>
</g>
<!-- synd -->
<g id="node10" class="node">
<title>synd</title>
<polygon fill="none" stroke="black" points="665.56,-36 611.56,-36 611.56,0 665.56,0 665.56,-36"/>
<text text-anchor="middle" x="638.56" y="-13.32" font-family="Times,serif" font-size="14.00">synd</text>
</g>
<!-- synd&#45;&gt;support -->
<g id="edge1" class="edge">
<title>synd&#45;&gt;support:se</title>
<path fill="none" stroke="black" d="M665.66,-32.53C716.04,-59.4 822.72,-124.88 864.12,-216 865.16,-218.28 832.5,-216.52 814.61,-216.44"/>
<polygon fill="black" stroke="black" points="814.6,-212.93 804.86,-217.1 815.08,-219.92 814.6,-212.93"/>
</g>
<!-- synd&#45;&gt;persistence -->
<g id="edge2" class="edge">
<title>synd&#45;&gt;persistence</title>
<path fill="none" stroke="black" d="M611.4,-19.93C557.44,-22.61 433.69,-32.87 338.56,-72 260.14,-104.25 184.46,-171.57 146.97,-208.11"/>
<polygon fill="black" stroke="black" points="144.87,-205.26 140.21,-214.78 149.79,-210.24 144.87,-205.26"/>
</g>
<!-- synd&#45;&gt;client -->
<g id="edge3" class="edge">
<title>synd&#45;&gt;client</title>
<path fill="none" stroke="black" d="M638.56,-36.41C638.56,-60.39 638.56,-103.86 638.56,-132.58"/>
<polygon fill="black" stroke="black" points="635.06,-132.38 638.56,-142.38 642.06,-132.38 635.06,-132.38"/>
</g>
<!-- synd&#45;&gt;runtime -->
<g id="edge4" class="edge">
<title>synd&#45;&gt;runtime</title>
<path fill="none" stroke="black" d="M611.4,-28.01C578.81,-38.82 523.36,-57.22 481.86,-70.98"/>
<polygon fill="black" stroke="black" points="480.92,-67.61 472.53,-74.08 483.13,-74.25 480.92,-67.61"/>
</g>
<!-- term -->
<g id="node11" class="node">
<title>term</title>
<polygon fill="none" stroke="black" points="892.06,-108 801.06,-108 801.06,-72 892.06,-72 892.06,-108"/>
<text text-anchor="middle" x="846.56" y="-85.33" font-family="Times,serif" font-size="14.00">synd_term</text>
</g>
<!-- synd&#45;&gt;term -->
<g id="edge5" class="edge">
<title>synd&#45;&gt;term</title>
<path fill="none" stroke="black" d="M665.75,-28.15C697.12,-38.71 749.56,-56.36 789.9,-69.93"/>
<polygon fill="black" stroke="black" points="788.64,-73.2 799.24,-73.08 790.88,-66.57 788.64,-73.2"/>
</g>
<!-- term&#45;&gt;support -->
<g id="edge6" class="edge">
<title>term&#45;&gt;support:se</title>
<path fill="none" stroke="black" d="M856.66,-108.31C870.98,-135.33 892.44,-187.41 864.12,-216.2 862.38,-217.97 831.71,-216.39 814.6,-216.38"/>
<polygon fill="black" stroke="black" points="814.58,-212.87 804.86,-217.09 815.09,-219.85 814.58,-212.87"/>
</g>
<!-- term&#45;&gt;auth -->
<g id="edge7" class="edge">
<title>term&#45;&gt;auth</title>
<path fill="none" stroke="black" d="M860.12,-108.03C867.11,-117.91 874.92,-130.95 878.56,-144 884.66,-165.91 878.01,-247.34 873.56,-252 847.15,-279.62 607.08,-295.38 483.85,-301.71"/>
<polygon fill="black" stroke="black" points="483.98,-298.2 474.17,-302.2 484.33,-305.19 483.98,-298.2"/>
</g>
<!-- term&#45;&gt;feed -->
<g id="edge8" class="edge">
<title>term&#45;&gt;feed</title>
<path fill="none" stroke="black" d="M867.82,-108.3C877.66,-117.69 888.32,-130.2 893.56,-144 900.56,-162.46 899.91,-240.74 890.56,-252 816.54,-341.04 459.51,-367.19 304.56,-374.42"/>
<polygon fill="black" stroke="black" points="304.66,-370.91 294.83,-374.86 304.98,-377.9 304.66,-370.91"/>
</g>
<!-- term&#45;&gt;client -->
<g id="edge9" class="edge">
<title>term&#45;&gt;client</title>
<path fill="none" stroke="black" d="M800.65,-106.45C767.94,-117.46 723.94,-132.26 690.04,-143.67"/>
<polygon fill="black" stroke="black" points="689.21,-140.26 680.85,-146.77 691.44,-146.89 689.21,-140.26"/>
</g>
<!-- api&#45;&gt;support -->
<g id="edge17" class="edge">
<title>api&#45;&gt;support:se</title>
<path fill="none" stroke="black" d="M407.99,-166.51C524,-176.94 856.48,-207.5 864.12,-216 865.8,-217.86 832.83,-216.31 814.74,-216.36"/>
<polygon fill="black" stroke="black" points="814.58,-212.86 804.86,-217.09 815.09,-219.84 814.58,-212.86"/>
</g>
<!-- api&#45;&gt;protocol -->
<g id="edge18" class="edge">
<title>api&#45;&gt;protocol</title>
<path fill="none" stroke="black" d="M407.79,-176.66C438.82,-187.47 482.45,-202.66 516.58,-214.55"/>
<polygon fill="black" stroke="black" points="515.28,-217.8 525.87,-217.79 517.58,-211.19 515.28,-217.8"/>
</g>
<!-- api&#45;&gt;auth -->
<g id="edge19" class="edge">
<title>api&#45;&gt;auth</title>
<path fill="none" stroke="black" d="M356.51,-180.4C345.35,-198.84 332.07,-228.49 343.56,-252 349.77,-264.71 360.66,-275.26 371.94,-283.52"/>
<polygon fill="black" stroke="black" points="369.9,-286.37 380.15,-289.06 373.82,-280.56 369.9,-286.37"/>
</g>
<!-- api&#45;&gt;feed -->
<g id="edge20" class="edge">
<title>api&#45;&gt;feed</title>
<path fill="none" stroke="black" d="M357.74,-180.36C335.47,-216.06 285.15,-296.67 267.56,-324 261.98,-332.66 255.81,-342.06 250.22,-350.51"/>
<polygon fill="black" stroke="black" points="247.45,-348.35 244.84,-358.62 253.29,-352.22 247.45,-348.35"/>
</g>
<!-- api&#45;&gt;registry -->
<g id="edge21" class="edge">
<title>api&#45;&gt;registry</title>
<path fill="none" stroke="black" d="M332.14,-180.33C313.62,-189.82 291.15,-202.41 272.56,-216 246.44,-235.09 219.97,-260.86 201.8,-279.75"/>
<polygon fill="black" stroke="black" points="199.46,-277.14 195.12,-286.8 204.54,-281.95 199.46,-277.14"/>
</g>
<!-- api&#45;&gt;persistence -->
<g id="edge22" class="edge">
<title>api&#45;&gt;persistence</title>
<path fill="none" stroke="black" d="M329.03,-174.25C290.13,-185.31 230.15,-202.38 184.84,-215.28"/>
<polygon fill="black" stroke="black" points="184.07,-211.86 175.41,-217.96 185.98,-218.59 184.07,-211.86"/>
</g>
<!-- api&#45;&gt;test -->
<g id="edge23" class="edge">
<title>api&#45;&gt;test</title>
<path fill="none" stroke="black" stroke-dasharray="1,5" d="M379.18,-180.3C383.98,-188.1 389.74,-197.49 395.07,-206.17"/>
<polygon fill="black" stroke="black" points="392.04,-207.92 400.26,-214.61 398,-204.25 392.04,-207.92"/>
</g>
</g>
</svg>
