<?xml version="1.0" encoding="UTF-8" standalone="no"?>
<!DOCTYPE svg PUBLIC "-//W3C//DTD SVG 1.1//EN"
 "http://www.w3.org/Graphics/SVG/1.1/DTD/svg11.dtd">
<!-- Generated by graphviz version 10.0.1 (0)
 -->
<!-- Pages: 1 -->
<svg width="475pt" height="223pt"
 viewBox="0.00 0.00 475.01 223.25" xmlns="http://www.w3.org/2000/svg" xmlns:xlink="http://www.w3.org/1999/xlink">
<g id="graph0" class="graph" transform="scale(1 1) rotate(0) translate(4 219.25)">
<polygon fill="white" stroke="none" points="-4,4 -4,-219.25 471.01,-219.25 471.01,4 -4,4"/>
<text text-anchor="middle" x="75.5" y="-197.95" font-family="Helvetica,Arial,sans-serif" font-size="14.00">Syndicationd overview</text>
<g id="clust1" class="cluster">
<title>cluster_synd_api</title>
<polygon fill="none" stroke="black" points="132.26,-8 132.26,-178.25 298.26,-178.25 298.26,-8 132.26,-8"/>
<text text-anchor="middle" x="165.76" y="-160.95" font-family="Helvetica,Arial,sans-serif" font-size="14.00">synd&#45;api</text>
</g>
<!-- synd -->
<g id="node1" class="node">
<title>synd</title>
<ellipse fill="none" stroke="black" cx="62.26" cy="-123.25" rx="62.26" ry="18"/>
<text text-anchor="middle" x="62.26" y="-118.58" font-family="Times,serif" font-size="14.00">synd&#45;term</text>
</g>
<!-- feeds -->
<g id="node2" class="node">
<title>feeds</title>
<polygon fill="none" stroke="black" points="279.26,-141.25 221.26,-141.25 221.26,-105.25 279.26,-105.25 279.26,-141.25"/>
<text text-anchor="middle" x="250.26" y="-118.58" font-family="Times,serif" font-size="14.00">Feeds</text>
</g>
<!-- synd&#45;&gt;feeds -->
<g id="edge1" class="edge">
<title>synd&#45;&gt;feeds</title>
<path fill="none" stroke="black" d="M124.86,-123.25C152.67,-123.25 184.63,-123.25 209.32,-123.25"/>
<polygon fill="black" stroke="black" points="209.3,-126.75 219.3,-123.25 209.3,-119.75 209.3,-126.75"/>
<text text-anchor="middle" x="172.88" y="-130.2" font-family="Times,serif" font-size="14.00">subscribe</text>
</g>
<!-- feed_src -->
<g id="node4" class="node">
<title>feed_src</title>
<ellipse fill="none" stroke="black" cx="409.26" cy="-34" rx="55.42" ry="18"/>
<text text-anchor="middle" x="409.26" y="-29.32" font-family="Times,serif" font-size="14.00">Feed Src</text>
</g>
<!-- feeds&#45;&gt;feed_src -->
<g id="edge2" class="edge">
<title>feeds&#45;&gt;feed_src</title>
<path fill="none" stroke="black" d="M279.42,-106.25C305.45,-91.96 343.71,-70.97 371.96,-55.47"/>
<polygon fill="black" stroke="black" points="373.46,-58.63 380.55,-50.75 370.09,-52.5 373.46,-58.63"/>
<text text-anchor="middle" x="405.13" y="-73.95" font-family="Times,serif" font-size="14.00">periodically fetch</text>
</g>
<!-- feed_entries_cache -->
<g id="node3" class="node">
<title>feed_entries_cache</title>
<polygon fill="none" stroke="black" points="290.38,-52 140.13,-52 140.13,-16 290.38,-16 290.38,-52"/>
<text text-anchor="middle" x="215.26" y="-29.32" font-family="Times,serif" font-size="14.00">Feed entries cache</text>
</g>
<!-- feed_entries_cache&#45;&gt;synd -->
<g id="edge4" class="edge">
<title>feed_entries_cache&#45;&gt;synd</title>
<path fill="none" stroke="black" d="M184.73,-52.41C160.21,-66.39 125.68,-86.08 99.54,-100.99"/>
<polygon fill="black" stroke="black" points="97.88,-97.91 90.92,-105.9 101.35,-103.99 97.88,-97.91"/>
<text text-anchor="middle" x="170.26" y="-73.95" font-family="Times,serif" font-size="14.00">fetch</text>
</g>
<!-- feed_src&#45;&gt;feed_entries_cache -->
<g id="edge3" class="edge">
<title>feed_src&#45;&gt;feed_entries_cache</title>
<path fill="none" stroke="black" d="M353.43,-34C337.42,-34 319.58,-34 302.17,-34"/>
<polygon fill="black" stroke="black" points="302.33,-30.5 292.33,-34 302.33,-37.5 302.33,-30.5"/>
<text text-anchor="middle" x="322.11" y="-40.95" font-family="Times,serif" font-size="14.00">stored</text>
</g>
</g>
</svg>
