<?xml version="1.0" encoding="UTF-8" standalone="no"?>
<!DOCTYPE svg PUBLIC "-//W3C//DTD SVG 1.1//EN"
 "http://www.w3.org/Graphics/SVG/1.1/DTD/svg11.dtd">
<!-- Generated by graphviz version 10.0.1 (0)
 -->
<!-- Pages: 1 -->
<svg width="302pt" height="217pt"
 viewBox="0.00 0.00 301.89 217.00" xmlns="http://www.w3.org/2000/svg" xmlns:xlink="http://www.w3.org/1999/xlink">
<g id="graph0" class="graph" transform="scale(1 1) rotate(0) translate(4 213)">
<polygon fill="white" stroke="none" points="-4,4 -4,-213 297.89,-213 297.89,4 -4,4"/>
<text text-anchor="middle" x="106.25" y="-191.7" font-family="Helvetica,Arial,sans-serif" font-size="14.00">Syndicationd packages overview</text>
<!-- o11y -->
<g id="node1" class="node">
<title>o11y</title>
<ellipse fill="none" stroke="black" cx="75.34" cy="-162" rx="63.83" ry="18"/>
<text text-anchor="middle" x="75.34" y="-157.32" font-family="Times,serif" font-size="14.00">synd_o11y</text>
</g>
<!-- auth -->
<g id="node2" class="node">
<title>auth</title>
<ellipse fill="none" stroke="black" cx="216.34" cy="-90" rx="62.26" ry="18"/>
<text text-anchor="middle" x="216.34" y="-85.33" font-family="Times,serif" font-size="14.00">synd_auth</text>
</g>
<!-- feed -->
<g id="node3" class="node">
<title>feed</title>
<ellipse fill="none" stroke="black" cx="75.34" cy="-90" rx="61.2" ry="18"/>
<text text-anchor="middle" x="75.34" y="-85.33" font-family="Times,serif" font-size="14.00">synd_feed</text>
</g>
<!-- feed&#45;&gt;o11y -->
<g id="edge1" class="edge">
<title>feed&#45;&gt;o11y</title>
<path fill="none" stroke="black" d="M75.34,-108.3C75.34,-115.59 75.34,-124.27 75.34,-132.46"/>
<polygon fill="black" stroke="black" points="71.84,-132.38 75.34,-142.38 78.84,-132.38 71.84,-132.38"/>
</g>
<!-- term -->
<g id="node4" class="node">
<title>term</title>
<polygon fill="none" stroke="black" points="261.84,-36 170.84,-36 170.84,0 261.84,0 261.84,-36"/>
<text text-anchor="middle" x="216.34" y="-13.32" font-family="Times,serif" font-size="14.00">synd_term</text>
</g>
<!-- term&#45;&gt;o11y -->
<g id="edge2" class="edge">
<title>term&#45;&gt;o11y</title>
<path fill="none" stroke="black" d="M251.88,-36.29C265.58,-44.96 279.76,-56.87 287.34,-72 294.51,-86.3 297.19,-95.39 287.34,-108 269.79,-130.49 199.69,-144.84 144.85,-152.86"/>
<polygon fill="black" stroke="black" points="144.67,-149.35 135.25,-154.22 145.64,-156.28 144.67,-149.35"/>
</g>
<!-- term&#45;&gt;auth -->
<g id="edge3" class="edge">
<title>term&#45;&gt;auth</title>
<path fill="none" stroke="black" d="M216.34,-36.3C216.34,-43.59 216.34,-52.27 216.34,-60.46"/>
<polygon fill="black" stroke="black" points="212.84,-60.38 216.34,-70.38 219.84,-60.38 212.84,-60.38"/>
</g>
<!-- term&#45;&gt;feed -->
<g id="edge4" class="edge">
<title>term&#45;&gt;feed</title>
<path fill="none" stroke="black" d="M181.13,-36.48C161.17,-46.39 136.13,-58.82 115.42,-69.1"/>
<polygon fill="black" stroke="black" points="114.1,-65.85 106.7,-73.43 117.21,-72.12 114.1,-65.85"/>
</g>
<!-- api -->
<g id="node5" class="node">
<title>api</title>
<polygon fill="none" stroke="black" points="114.47,-36 36.22,-36 36.22,0 114.47,0 114.47,-36"/>
<text text-anchor="middle" x="75.34" y="-13.32" font-family="Times,serif" font-size="14.00">synd_api</text>
</g>
<!-- api&#45;&gt;o11y -->
<g id="edge5" class="edge">
<title>api&#45;&gt;o11y</title>
<path fill="none" stroke="black" d="M40.29,-36.4C26.78,-45.09 12.81,-56.99 5.34,-72 -1.78,-86.33 -1.78,-93.67 5.34,-108 11.77,-120.92 23.02,-131.54 34.64,-139.78"/>
<polygon fill="black" stroke="black" points="32.41,-142.51 42.69,-145.06 36.25,-136.65 32.41,-142.51"/>
</g>
<!-- api&#45;&gt;auth -->
<g id="edge6" class="edge">
<title>api&#45;&gt;auth</title>
<path fill="none" stroke="black" d="M110.56,-36.48C130.38,-46.32 155.2,-58.65 175.83,-68.89"/>
<polygon fill="black" stroke="black" points="174.01,-71.89 184.52,-73.2 177.12,-65.62 174.01,-71.89"/>
</g>
<!-- api&#45;&gt;feed -->
<g id="edge7" class="edge">
<title>api&#45;&gt;feed</title>
<path fill="none" stroke="black" d="M75.34,-36.3C75.34,-43.59 75.34,-52.27 75.34,-60.46"/>
<polygon fill="black" stroke="black" points="71.84,-60.38 75.34,-70.38 78.84,-60.38 71.84,-60.38"/>
</g>
</g>
</svg>
